<mxfile host="app.diagrams.net" modified="2024-06-03T21:12:38.237Z" agent="Mozilla/5.0 (Macintosh; Intel Mac OS X 10_15_7) AppleWebKit/605.1.15 (KHTML, like Gecko) Version/17.4.1 Safari/605.1.15" version="24.4.13" etag="_mdBqsg-ERGLJVyFt_Ot" type="github">
  <diagram name="Page-1" id="UzX09zoYfqb_Xk6zOEuL">
    <mxGraphModel>
      <root>
        <mxCell id="0" />
        <mxCell id="1" parent="0" />
      </root>
    </mxGraphModel>
  </diagram>
</mxfile>
